<?xml version="1.0" encoding="utf-8"?>
<svg version="1.1" baseProfile="tiny"
	 xmlns="http://www.w3.org/2000/svg" xmlns:xlink="http://www.w3.org/1999/xlink" x="0px" y="0px" viewBox="0 0 300 300"
	 overflow="visible" xml:space="preserve">
<path fill="#FFEEDA" d="M262.5,197.3c0,0,0-152.2,0-152.2c-0.2-12.7-10.3-23-23.1-23l-158.9,0c-34.3,0.6-61.9,28.5-61.9,63
	c0.1,20.6,9.4,37.2,24.5,49.4c1.7,1.4,0.9,0.9,6.3,4.2c7.4,4.6,16,6.8,16,6.8c0.6,8-1.7,98.4,1.7,103.3c5,18.8,22.3,30.7,41.4,30.8
	c0,0,126.9,0.5,126.9,0.5c25.3,0,45.8-20.5,45.8-45.9C281.2,219.1,273.8,205.7,262.5,197.3z"/>
<path fill="#EBC28E" d="M265.6,235.3c-0.5,16.3-13.8,29.3-30.2,29.3l-87.3-0.3c18-20.4,11-47.9,0.5-60.2l86.8,0
	C252.4,204,266.1,218.3,265.6,235.3z"/>
<g>
	<path fill="#190602" d="M51.4,121.6C18.5,92.2,36.2,40.2,80.6,37.8c0,0,158.9,0,158.9,0c4.2,0.2,7.5,3.1,7.5,7.4v134.4
		c3.7,0.7,5.4,1.1,8.9,2.4c2.7,1,6.7,3.2,6.7,3.2v-140c-0.2-12.7-10.3-23-23.1-23l-158.9,0c-34.3,0.6-61.9,28.5-61.9,63
		c0,20,9.1,37,24,49.1c1,0.8,2,1.8,4.7,1.8c4.7,0,8-3.7,7.8-7.8C55,124.9,53.6,123.7,51.4,121.6z"/>
	<path fill="#190602" d="M235.4,188.4H110.7c-8.4,0.1-15.1,6.9-15.1,15.3v17.9c0.2,8.3,7.3,15.4,15.6,15.4h9.3v-15.4h-9.3V204
		c0,0,2.3,0,5.1,0c15.7,0,27.3,14.6,27.3,30.3c-2.7,39.7-59.7,40.7-62.6,0c0,0,0-151.9,0-151.9C81,75.6,75.4,70,68.5,70
		c0,0-12.4,0-12.4,0v15.5l9.2,0l0,148.8c-0.5,30.3,21.6,45.5,44.5,45.5l125.5,0.4C296.1,277.8,296.2,190.8,235.4,188.4z
		 M265.6,235.3c-0.5,16.3-13.8,29.3-30.2,29.3l-87.3-0.3c18-20.4,11-47.9,0.5-60.2l86.8,0C252.4,204,266.1,218.3,265.6,235.3z"/>
	<path fill="#190602" d="M204.7,88.3h-96.8V72.8h96.8c2.7,0,4.8,2.2,4.8,4.8v5.8C209.6,86.1,207.4,88.3,204.7,88.3z"/>
	<path fill="#190602" d="M204.7,161.4h-96.8V146h96.8c2.7,0,4.8,2.2,4.8,4.8v5.8C209.6,159.3,207.4,161.4,204.7,161.4z"/>
	<path fill="#190602" d="M221.3,124.9H107.9v-15.5h113.4c2.7,0,4.8,2.2,4.8,4.8v5.8C226.1,122.7,223.9,124.9,221.3,124.9z"/>
</g>
</svg>